<svg width="35" height="36" viewBox="0 0 35 36" fill="none" xmlns="http://www.w3.org/2000/svg">
<path d="M28.2083 5.22222H13.7639C13.5245 5.22222 13.2948 5.33002 13.1255 5.5219C12.9562 5.71377 12.8611 5.97402 12.8611 6.24537V11.3611H8.34724C8.1078 11.3611 7.87818 11.4689 7.70888 11.6608C7.53957 11.8527 7.44446 12.1129 7.44446 12.3843V28.7546C7.44446 29.026 7.53957 29.2862 7.70888 29.4781C7.87818 29.67 8.1078 29.7778 8.34724 29.7778H22.7917C23.0311 29.7778 23.2607 29.67 23.43 29.4781C23.5993 29.2862 23.6945 29.026 23.6945 28.7546V23.6389H28.2083C28.4478 23.6389 28.6774 23.5311 28.8467 23.3392C29.016 23.1473 29.1111 22.8871 29.1111 22.6157V6.24537C29.1111 5.97402 29.016 5.71377 28.8467 5.5219C28.6774 5.33002 28.4478 5.22222 28.2083 5.22222ZM21.8889 27.7315H9.25001V13.4074H21.8889V27.7315ZM27.3056 21.5926H23.6945V12.3843C23.6945 12.1129 23.5993 11.8527 23.43 11.6608C23.2607 11.4689 23.0311 11.3611 22.7917 11.3611H14.6667V7.26852H27.3056V21.5926Z" fill="white"/>
</svg>
