<svg width="19" height="19" viewBox="0 0 19 19" fill="none" xmlns="http://www.w3.org/2000/svg">
<path d="M16.625 3.95843L2.37499 3.95843C2.23072 3.95889 2.0893 3.99868 1.96596 4.07352C1.84262 4.14837 1.74202 4.25544 1.67501 4.3832C1.60799 4.51097 1.57708 4.65459 1.58562 4.79862C1.59416 4.94264 1.64181 5.0816 1.72345 5.20056L8.84845 15.4922C9.14374 15.9189 9.85466 15.9189 10.1507 15.4922L17.2757 5.20056C17.3582 5.08185 17.4066 4.94282 17.4156 4.79856C17.4246 4.65429 17.3939 4.51032 17.3268 4.38229C17.2597 4.25425 17.1588 4.14705 17.0351 4.07232C16.9114 3.9976 16.7695 3.95821 16.625 3.95843ZM9.49999 13.6508L3.88549 5.54177L15.1145 5.54177L9.49999 13.6508Z" fill="#35DADC"/>
</svg>
