<svg width="78" height="78" viewBox="0 0 78 78" fill="none" xmlns="http://www.w3.org/2000/svg">
<g clip-path="url(#clip0_5_621)">
<path d="M74.1 35.8761H70.278C68.1213 35.8761 66.378 37.2762 66.378 39C66.378 40.7199 68.1213 42.1161 70.278 42.1161H74.1C76.2528 42.1161 78 40.7238 78 39C78 37.2801 76.2489 35.8761 74.1 35.8761ZM39 17.55C36.1807 17.5412 33.3875 18.0901 30.7811 19.165C28.1747 20.2398 25.8066 21.8195 23.813 23.813C21.8195 25.8066 20.2398 28.1747 19.165 30.7811C18.0901 33.3875 17.5412 36.1807 17.55 39C17.55 50.8989 27.1011 60.45 39 60.45C50.895 60.45 60.45 50.8989 60.45 39C60.45 27.1011 50.8911 17.55 39 17.55ZM39 54.6C30.3771 54.6 23.4 47.6151 23.4 39C23.4 30.3771 30.3771 23.4 39 23.4C43.1374 23.4 47.1053 25.0436 50.0309 27.9691C52.9564 30.8947 54.6 34.8626 54.6 39C54.6 43.1374 52.9564 47.1053 50.0309 50.0309C47.1053 52.9564 43.1374 54.6 39 54.6ZM11.7 39C11.7 37.2801 9.9489 35.8761 7.8 35.8761H3.9C1.7433 35.8761 0 37.2762 0 39C0 40.7199 1.7433 42.1161 3.9 42.1161H7.8C9.9489 42.1161 11.7 40.7199 11.7 39ZM39 11.7C40.7199 11.7 42.1161 9.9567 42.1161 7.8V3.9C42.1161 1.7433 40.7199 0 39 0C37.2762 0 35.8761 1.7433 35.8761 3.9V7.8C35.8761 9.9567 37.2762 11.7 39 11.7ZM39 66.3C37.2762 66.3 35.8761 68.0433 35.8761 70.2V74.1C35.8761 76.2567 37.2762 78 39 78C40.7199 78 42.1161 76.2567 42.1161 74.1V70.2C42.1161 68.0433 40.7199 66.3 39 66.3ZM67.7235 14.6874C69.2484 13.1625 69.4941 10.9395 68.2773 9.7227C67.0605 8.5059 64.8336 8.7555 63.3165 10.2804L60.5865 13.0065C59.0616 14.5314 58.8159 16.7544 60.0327 17.9712C61.2495 19.188 63.4764 18.9384 64.9974 17.4135L67.7235 14.6874ZM13.0026 60.5787L10.2726 63.3126C8.7477 64.8375 8.502 67.0527 9.7188 68.2695C10.9356 69.4863 13.1625 69.2445 14.6796 67.7196L17.4096 64.9935C18.9345 63.4686 19.1802 61.2456 17.9634 60.0249C16.7466 58.8042 14.5197 59.0616 13.0026 60.5787ZM14.6835 10.2765C13.1625 8.7516 10.9356 8.502 9.7188 9.7188C8.502 10.9356 8.7516 13.1625 10.2687 14.6874L12.9987 17.4135C14.5236 18.9384 16.7427 19.188 17.9595 17.9712C19.1763 16.7544 18.9306 14.5275 17.4096 13.0065L14.6835 10.2765ZM60.5826 64.9974L63.3126 67.7235C64.8375 69.2484 67.0566 69.4902 68.2734 68.2812C69.4902 67.0644 69.2445 64.8375 67.7196 63.3165L64.9935 60.5904C63.4686 59.0655 61.2456 58.8159 60.0249 60.0327C58.8042 61.2495 59.0577 63.4725 60.5826 64.9974Z" fill="#FFA900"/>
</g>
<defs>
<clipPath id="clip0_5_621">
<rect width="78" height="78" fill="white"/>
</clipPath>
</defs>
</svg>
