<svg width="34" height="34" viewBox="0 0 34 34" fill="none" xmlns="http://www.w3.org/2000/svg">
<path d="M17 29.75C15.2452 29.75 13.5924 29.4147 12.0417 28.7442C10.4909 28.0736 9.14033 27.1622 7.99 26.01C6.83778 24.8606 5.92639 23.5101 5.25583 21.9583C4.58528 20.4076 4.25 18.7548 4.25 17C4.25 15.2405 4.58528 13.5863 5.25583 12.0374C5.92733 10.4885 6.83872 9.13892 7.99 7.98858C9.13939 6.83825 10.4899 5.92781 12.0417 5.25725C13.5924 4.58575 15.2452 4.25 17 4.25C18.7595 4.25 20.4137 4.58528 21.9626 5.25583C23.5115 5.92733 24.8611 6.83872 26.0114 7.99C27.1617 9.14033 28.0722 10.4895 28.7427 12.0374C29.4142 13.5863 29.75 15.2405 29.75 17C29.75 18.7548 29.4147 20.4076 28.7442 21.9583C28.0736 23.5091 27.1622 24.8597 26.01 26.01C24.8597 27.1613 23.5105 28.0727 21.9626 28.7442C20.4137 29.4147 18.7595 29.75 17 29.75ZM17 28.3447C17.8311 27.2765 18.5168 26.2277 19.057 25.1982C19.5963 24.1688 20.035 23.0166 20.3731 21.7416H13.6269C14.0009 23.0884 14.4486 24.2765 14.9699 25.3059C15.4913 26.3354 16.1679 27.3483 17 28.3447ZM15.1966 28.1322C14.5355 27.353 13.932 26.3897 13.3861 25.2422C12.8402 24.0956 12.4341 22.9283 12.1677 21.7402H6.73342C7.54564 23.5025 8.69644 24.9475 10.1858 26.0752C11.6762 27.2028 13.3459 27.8885 15.1952 28.1322M18.802 28.1322C20.6512 27.8885 22.321 27.2028 23.8113 26.0752C25.3017 24.9475 26.4525 23.5025 27.2638 21.7402H21.8323C21.4734 22.9462 21.0214 24.123 20.4765 25.2705C19.9306 26.4171 19.3724 27.3709 18.802 28.1322ZM6.15542 20.3235H11.8717C11.764 19.7427 11.6884 19.1765 11.645 18.6249C11.5997 18.0734 11.577 17.5317 11.577 17C11.577 16.4683 11.5992 15.9266 11.6436 15.3751C11.688 14.8235 11.7635 14.2569 11.8702 13.6751H6.15825C6.00431 14.1662 5.88389 14.7012 5.797 15.2802C5.71011 15.8591 5.66667 16.4324 5.66667 17C5.66667 17.5686 5.70964 18.1418 5.79558 18.7198C5.88247 19.2988 6.00289 19.8333 6.15683 20.3235M13.2897 20.3235H20.7103C20.8179 19.7427 20.8935 19.1854 20.9369 18.6518C20.9823 18.1192 21.0049 17.5686 21.0049 17C21.0049 16.4314 20.9827 15.8808 20.9383 15.3482C20.8939 14.8146 20.8184 14.2573 20.7117 13.6765H13.2883C13.1816 14.2573 13.1061 14.8146 13.0617 15.3482C13.0173 15.8808 12.9951 16.4314 12.9951 17C12.9951 17.5686 13.0173 18.1192 13.0617 18.6518C13.1061 19.1854 13.183 19.7427 13.2897 20.3235ZM22.1283 20.3235H27.8432C27.9971 19.8324 28.1175 19.2978 28.2044 18.7198C28.2913 18.1418 28.3343 17.5686 28.3333 17C28.3333 16.4314 28.2904 15.8582 28.2044 15.2802C28.1175 14.7012 27.9971 14.1667 27.8432 13.6765H22.1269C22.2346 14.2573 22.3101 14.8235 22.3536 15.3751C22.3989 15.9266 22.4216 16.4683 22.4216 17C22.4216 17.5317 22.3994 18.0734 22.355 18.6249C22.3106 19.1765 22.2351 19.7431 22.1283 20.3249M21.8337 12.2598H27.2652C26.435 10.4616 25.2979 9.01661 23.8538 7.92483C22.4088 6.83306 20.7254 6.13889 18.8034 5.84233C19.4645 6.71122 20.0591 7.70572 20.587 8.82583C21.114 9.945 21.5296 11.0897 21.8337 12.2598ZM13.6269 12.2598H20.3731C19.9991 10.9301 19.5377 9.72778 18.989 8.653C18.4412 7.57728 17.7782 6.57806 17 5.65533C16.2227 6.57806 15.5597 7.57728 15.011 8.653C14.4632 9.72778 14.0019 10.9301 13.6269 12.2598ZM6.73483 12.2598H12.1663C12.4704 11.0897 12.886 9.945 13.413 8.82583C13.9409 7.70572 14.5355 6.71075 15.1966 5.84092C13.2567 6.13842 11.569 6.83731 10.1334 7.93758C8.69786 9.03881 7.56453 10.4791 6.73342 12.2584" fill="white"/>
</svg>
