<svg width="29" height="29" viewBox="0 0 29 29" fill="none" xmlns="http://www.w3.org/2000/svg">
<path d="M2.41667 9.66659C2.41667 8.38471 2.9259 7.15533 3.83232 6.2489C4.73875 5.34248 5.96813 4.83325 7.25 4.83325H21.75C23.0319 4.83325 24.2613 5.34248 25.1677 6.2489C26.0741 7.15533 26.5833 8.38471 26.5833 9.66659V19.3333C26.5833 20.6151 26.0741 21.8445 25.1677 22.7509C24.2613 23.6574 23.0319 24.1666 21.75 24.1666H7.25C5.96813 24.1666 4.73875 23.6574 3.83232 22.7509C2.9259 21.8445 2.41667 20.6151 2.41667 19.3333V9.66659Z" stroke="#FFA900" stroke-width="2" stroke-linecap="round" stroke-linejoin="round"/>
<path d="M12.0833 10.875L18.125 14.5L12.0833 18.125V10.875Z" stroke="#FFA900" stroke-width="2" stroke-linecap="round" stroke-linejoin="round"/>
</svg>
